<svg width="35" height="20" viewBox="0 0 35 20" fill="none" xmlns="http://www.w3.org/2000/svg">
<path fill-rule="evenodd" clip-rule="evenodd" d="M22.8975 16.7571C22.7133 16.9285 22.5655 17.1353 22.463 17.365C22.3606 17.5947 22.3055 17.8427 22.301 18.0942C22.2966 18.3456 22.3429 18.5954 22.4372 18.8286C22.5315 19.0618 22.6719 19.2736 22.8499 19.4515C23.028 19.6293 23.24 19.7695 23.4735 19.8637C23.707 19.9579 23.957 20.0041 24.2088 19.9997C24.4606 19.9953 24.7088 19.9402 24.9388 19.8379C25.1688 19.7355 25.3758 19.5879 25.5475 19.4039L33.6725 11.2886L35 9.96513L33.675 8.6417L25.55 0.526332C25.1965 0.18502 24.723 -0.00397063 24.2314 6.32732e-05C23.7397 0.00409718 23.2694 0.200834 22.9216 0.5479C22.5738 0.894966 22.3764 1.36459 22.3719 1.85563C22.3673 2.34666 22.5561 2.81982 22.8975 3.17319L27.8225 8.09236H1.875C1.37772 8.09236 0.900806 8.28967 0.549175 8.64088C0.197544 8.99209 0 9.46844 0 9.96513C0 10.4618 0.197544 10.9382 0.549175 11.2894C0.900806 11.6406 1.37772 11.8379 1.875 11.8379H27.8225L22.8975 16.7571Z" fill="black"/>
</svg>
