<svg width="130" height="130" viewBox="0 0 130 130" fill="none" xmlns="http://www.w3.org/2000/svg">
<path d="M61.67 65.003C61.67 47.2305 88.3375 47.2305 88.3375 65.003C88.3375 82.7755 61.67 82.7755 61.67 65.003ZM35.0025 91.6705C35.0015 89.9194 35.3457 88.1852 36.0154 86.5672C36.685 84.9492 37.6671 83.479 38.9053 82.2408C40.1435 81.0026 41.6137 80.0205 43.2317 79.3509C44.8497 78.6812 46.5839 78.337 48.335 78.338H61.6675V91.6705C61.6675 109.443 35 109.443 35 91.6705H35.0025ZM61.67 25.003V51.6705H75.0025C92.775 51.6705 92.775 25.003 75.0025 25.003H61.67ZM35.0025 38.3355C35.0015 40.0866 35.3457 41.8208 36.0154 43.4388C36.685 45.0568 37.6671 46.527 38.9053 47.7652C40.1435 49.0034 41.6137 49.9854 43.2317 50.6551C44.8497 51.3248 46.5839 51.669 48.335 51.668H61.6675V25.0005H48.335C46.5839 24.9995 44.8497 25.3437 43.2317 26.0134C41.6137 26.683 40.1435 27.6651 38.9053 28.9033C37.6671 30.1415 36.685 31.6117 36.0154 33.2297C35.3457 34.8477 35.0015 36.5819 35.0025 38.333V38.3355ZM35.0025 65.003C35.0015 66.7541 35.3457 68.4883 36.0154 70.1063C36.685 71.7243 37.6671 73.1945 38.9053 74.4327C40.1435 75.6709 41.6137 76.653 43.2317 77.3226C44.8497 77.9923 46.5839 78.339 48.335 78.338H61.6675V51.668H48.335C46.5839 51.667 44.8497 52.0112 43.2317 52.6809C41.6137 53.3505 40.1435 54.3326 38.9053 55.5708C37.6671 56.809 36.685 58.2792 36.0154 59.8972C35.3457 61.5152 35.0015 63.2494 35.0025 65.0005V65.003Z" fill="black"/>
</svg>
