<svg width="100" height="100" viewBox="0 0 100 100" fill="none" xmlns="http://www.w3.org/2000/svg">
<path d="M50 0C63.2608 0 75.9785 5.26784 85.3553 14.6447C94.7322 24.0215 100 36.7392 100 50C100 63.2608 94.7322 75.9785 85.3553 85.3553C75.9785 94.7322 63.2608 100 50 100C36.7392 100 24.0215 94.7322 14.6447 85.3553C5.26784 75.9785 0 63.2608 0 50C0 36.7392 5.26784 24.0215 14.6447 14.6447C24.0215 5.26784 36.7392 0 50 0ZM50 8.16667C27.025 8.16667 8.33333 26.8583 8.33333 50C8.3226 58.7955 11.0844 67.3706 16.2262 74.5066C21.368 81.6426 28.6282 86.9764 36.975 89.75L37.35 89.7917C39.0417 89.875 39.675 88.7167 39.675 87.7083L39.6167 80.5917C28.0333 83.1167 25.5833 74.975 25.5833 74.975C23.6917 70.1417 20.9583 68.8583 20.9583 68.8583C17.175 66.2583 21.2417 66.3083 21.2417 66.3083C24.2833 66.525 26.275 68.7083 27.1417 69.8917L27.625 70.625C31.3417 77.0167 37.375 75.175 39.75 74.1083C40.1333 71.4 41.2 69.5583 42.3917 68.5083C33.1417 67.45 23.4167 63.8583 23.4167 47.825C23.4167 43.2583 25.0417 39.525 27.7083 36.5917L27.4583 35.8833C26.925 34.1917 26.1917 30.4 28.1167 25.5167L28.45 25.4583C29.4833 25.325 33.0167 25.35 39.575 29.8083C42.9728 28.882 46.4782 28.4085 50 28.4C53.5417 28.4167 57.1083 28.8833 60.4333 29.8167C68.3917 24.4 71.8833 25.5167 71.8833 25.5167C74.15 31.2833 72.7167 35.5333 72.3 36.6C74.9667 39.5167 76.575 43.2583 76.575 47.825C76.575 63.9083 66.8333 67.4417 57.55 68.475C59.05 69.7667 60.3833 72.325 60.3833 76.225L60.3333 87.7083C60.3333 88.7917 61.0417 90.0583 63.025 89.75C71.3717 86.9764 78.632 81.6426 83.7738 74.5066C88.9156 67.3706 91.6774 58.7955 91.6667 50C91.6667 26.8583 72.975 8.16667 50 8.16667Z" fill="white"/>
</svg>
