<svg width="130" height="130" viewBox="0 0 130 130" fill="none" xmlns="http://www.w3.org/2000/svg">
<path d="M30 30V100H100V30H30ZM68.095 84.5925C68.095 91.405 64.095 94.515 58.2675 94.515C53.0025 94.515 49.955 91.7975 48.3925 88.5L53.7525 85.265C54.785 87.0925 55.7225 88.64 57.9875 88.64C60.1425 88.64 61.5175 87.795 61.5175 84.5V62.14H68.095V84.5925ZM83.655 94.515C77.545 94.515 73.5925 91.61 71.67 87.795L77.03 84.7025C78.4375 87 80.28 88.7025 83.515 88.7025C86.2325 88.7025 87.985 87.3425 87.985 85.4525C87.985 83.2025 86.2025 82.405 83.1875 81.0775L81.5475 80.375C76.7975 78.36 73.6575 75.8125 73.6575 70.4525C73.6575 65.515 77.4225 61.765 83.2825 61.765C87.47 61.765 90.47 63.2175 92.6275 67.03L87.5025 70.3125C86.3775 68.2975 85.1575 67.5 83.2675 67.5C81.3475 67.5 80.1275 68.72 80.1275 70.3125C80.1275 72.2825 81.3475 73.0775 84.175 74.3125L85.815 75.015C91.41 77.405 94.55 79.86 94.55 85.3575C94.55 91.265 89.8925 94.5125 83.6575 94.5125L83.655 94.515Z" fill="black"/>
</svg>
