<svg width="130" height="130" viewBox="0 0 130 130" fill="none" xmlns="http://www.w3.org/2000/svg">
<path d="M83.354 30.2167C81.9076 29.3066 80.1792 28.887 78.4495 29.0261L33.6571 32.717C32.6587 32.8005 31.7295 33.2356 31.0526 33.9366C30.3757 34.6375 30.0002 35.5534 30 36.5039V80.9597C30 82.5267 30.5386 84.0553 31.5309 85.3112L42.7371 99.4833C43.1419 99.9937 43.6758 100.399 44.2895 100.662C44.9032 100.925 45.5769 101.038 46.2484 100.989L98.3024 97.1904C99.308 97.116 100.247 96.6849 100.932 95.983C101.618 95.2811 101.999 94.3601 102 93.4035V43.9356C102 43.3422 101.845 42.758 101.55 42.2349C101.254 41.7117 100.828 41.2656 100.307 40.936L83.354 30.2167ZM79.0732 35.8241C79.1759 35.814 79.2788 35.8415 79.3608 35.9009L90.4819 42.9293L49.1441 46.0633L41.6112 38.9197L79.0732 35.8241ZM94.7992 90.5998L51.3756 93.7684V52.7423L94.7992 49.447V90.5998ZM37.2049 44.3926L44.1789 51.0063V89.92L37.294 81.2132C37.2332 81.1415 37.2016 81.0516 37.2049 80.9597V44.3926ZM65.919 57.7467L57.9123 58.246V87.2891L65.9959 86.7899V70.1329L80.2194 86.1446L88.2221 85.6453V56.6022L80.1384 57.1014V73.7584L65.919 57.7467Z" fill="black"/>
</svg>
