<svg width="130" height="130" viewBox="0 0 130 130" fill="none" xmlns="http://www.w3.org/2000/svg">
<path d="M66 57.7844C62.4608 57.7844 59.5785 61.0238 59.5785 65.0017C59.5785 68.9796 62.4608 72.2191 66 72.2191C69.5392 72.2191 72.4215 68.9796 72.4215 65.0017C72.4215 61.0238 69.5392 57.7844 66 57.7844ZM48.0225 79.3454L46.605 78.9509C36.057 75.9466 30 70.8636 30 64.9891C30 59.1145 36.0593 54.0315 46.605 51.0273L48.0225 50.6328L48.4207 52.2133C49.4906 56.3531 50.8586 60.3882 52.5112 64.2785L52.815 64.9891L52.5112 65.7123C50.8549 69.6008 49.4868 73.6362 48.4207 77.7775L48.0225 79.3454ZM45.9503 54.7143C37.9335 57.2432 33.0127 61.1275 33.0127 64.9891C33.0127 68.8506 37.9358 72.7198 45.9503 75.2638C46.931 71.7547 48.1171 68.3223 49.5007 64.9891C48.1171 61.6558 46.931 58.2234 45.9503 54.7143ZM83.9775 79.3454L83.5793 77.7649C82.5126 73.6279 81.1445 69.5967 79.4888 65.7123L79.185 64.9891L79.4888 64.2658C81.1451 60.3774 82.5132 56.3419 83.5793 52.2006L83.9775 50.6328L85.395 51.0273C95.943 54.0315 102 59.1145 102 64.9891C102 70.8636 95.9408 75.9466 85.395 78.9509L83.9775 79.3454ZM82.4993 64.9891C83.886 68.3208 85.0722 71.7535 86.0497 75.2638C94.0778 72.7223 98.9873 68.8506 98.9873 64.9891C98.9873 61.1275 94.0642 57.2584 86.0497 54.7143C85.063 58.2211 83.8771 61.653 82.4993 64.9891ZM45.9255 54.7017L45.5273 53.1212C42.5618 41.3721 43.464 32.9434 48 30.0049C52.4527 27.1194 59.5898 30.5309 67.0778 39.172L68.097 40.3454L67.0778 41.5188C64.4189 44.6286 61.9892 47.976 59.8125 51.528L59.403 52.1728L58.6987 52.2386C54.8703 52.5781 51.0726 53.2657 47.343 54.2945L45.9255 54.7017ZM51.6203 32.3517C50.8125 32.3517 50.097 32.5363 49.4985 32.9308C46.5218 34.8679 45.9953 41.5845 48.045 50.6454C51.2428 49.8388 54.4847 49.2711 57.7493 48.946C59.6295 45.9384 61.6845 43.0737 63.9007 40.3707C59.2253 35.2472 54.795 32.3517 51.6203 32.3517ZM80.391 100.997C80.379 100.997 80.379 100.997 80.391 100.997C76.1138 100.997 70.617 97.3888 64.9222 90.8036L63.903 89.6303L64.9222 88.4569C67.5811 85.347 70.0108 81.9996 72.1875 78.4477L72.5858 77.8028L73.29 77.7244C77.1233 77.3958 80.9255 76.7081 84.657 75.6684L86.0745 75.2739L86.4728 76.8545C89.4383 88.6035 88.536 97.0196 84 99.9556C82.9031 100.663 81.6556 101.025 80.391 100.997ZM68.097 89.605C72.7725 94.7284 77.2027 97.6265 80.3775 97.6265H80.3888C81.1852 97.6265 81.9007 97.4293 82.4993 97.0474C85.476 95.1103 86.016 88.3936 83.9528 79.3328C80.7547 80.1351 77.5128 80.6985 74.2485 81.0195C72.3687 84.0314 70.3137 86.8978 68.097 89.605ZM86.0745 54.7017L84.657 54.2945C80.9229 53.2693 77.1218 52.5818 73.29 52.2386L72.5858 52.1728L72.1875 51.528C70.0108 47.976 67.5811 44.6286 64.9222 41.5188L63.903 40.3454L64.9222 39.172C72.4103 30.5309 79.5472 27.1194 84 30.0049C88.536 32.9409 89.4383 41.3721 86.4728 53.1212L86.0745 54.7017ZM74.2507 48.946C77.5153 49.2711 80.7572 49.8388 83.955 50.6454C86.0182 41.5845 85.4782 34.8653 82.5015 32.9308C79.536 31.0088 73.9583 33.9575 68.0993 40.3732C70.3107 43.0809 72.3654 45.9452 74.2507 48.9485V48.946ZM51.6203 100.997C50.3535 101.023 49.1003 100.669 48 99.9581C43.464 97.0221 42.5618 88.6035 45.5273 76.857L45.9255 75.2765L47.343 75.671C50.8125 76.6598 54.633 77.3425 58.6987 77.7269L59.403 77.8053L59.8013 78.4502C61.9779 82.0021 64.4077 85.3495 67.0665 88.4594L68.0858 89.6328L67.0665 90.8062C61.383 97.3913 55.8863 101 51.6203 101V100.997ZM48.0472 79.3328C45.984 88.3936 46.524 95.1128 49.5007 97.0474C52.4662 98.944 58.0327 96.0207 63.903 89.605C61.6863 86.8978 59.6313 84.0289 57.7515 81.017C54.4868 80.6997 51.2447 80.1387 48.0472 79.3328ZM66 81.4519C63.5272 81.4519 60.996 81.3331 58.4535 81.0954L57.7493 81.0296L57.3398 80.3721C55.9037 78.0528 54.5548 75.6668 53.2965 73.2205C52.0359 70.7739 50.8671 68.269 49.7932 65.7123L49.4895 64.9891L49.7932 64.2658C51.9443 59.1534 54.4685 54.2501 57.3398 49.606L57.7493 48.9485L58.4535 48.8828C63.4756 48.4078 68.5244 48.4078 73.5465 48.8828L74.2507 48.9485L74.6603 49.606C77.5359 54.2469 80.0603 59.1507 82.2067 64.2658L82.5105 64.9891L82.2067 65.7123C80.0641 70.8297 77.5396 75.7338 74.6603 80.3721L74.2507 81.0296L73.5465 81.0954C71.0364 81.33 68.5188 81.4489 66 81.4519ZM59.4142 77.7901C63.8445 78.172 68.1555 78.172 72.597 77.7901C75.0743 73.7135 77.2757 69.4337 79.1827 64.9865C77.2838 60.5321 75.0781 56.2512 72.5858 52.1829C68.2018 51.8023 63.7982 51.8023 59.4142 52.1829C56.918 56.2484 54.7121 60.5297 52.8172 64.9865C54.7249 69.4358 56.9302 73.716 59.4142 77.7901Z" fill="black"/>
</svg>
